<svg xmlns="http://www.w3.org/2000/svg" viewBox="0 0 599.02 833.96"><defs><style>.cls-1{fill:#cd515b;stroke:#000;stroke-miterlimit:10;stroke-width:6px;}</style></defs><g id="Layer_2" data-name="Layer 2"><g id="alien"><path id="alien_one" data-name="alien one" class="cls-1" d="M210.14,544.91a87.5,87.5,0,0,1-26-.47c-25.86-4.17-52.28-18.66-74.4-40.8S72.23,454.17,66.47,426.7c-6.19-29.17-.9-55.33,14.81-73.55,10.48-12.16,24.54-19.6,40.89-21.9a87.57,87.57,0,0,1,26.06.46c25.86,4.17,52.28,18.66,74.4,40.8s37.5,49.48,43.27,76.94c6.14,29.17.86,55.3-14.86,73.55a63.14,63.14,0,0,1-18.38,14.72,68,68,0,0,1-22.53,7.19m177.86-25c-16.41,2.31-30.53-1.29-40.85-10.41-15.66-13.84-20.84-38.5-14.6-69.42,5.88-29.1,21.36-60.75,43.58-89.14s48.72-50.3,74.6-61.74a99.11,99.11,0,0,1,26.08-7.83c16.35-2.3,30.39,1.19,40.83,10.42,15.65,13.89,20.85,38.58,14.65,69.45-5.93,29.13-21.4,60.76-43.63,89.13s-48.71,50.29-74.6,61.74a98.94,98.94,0,0,1-26,7.78M300.05,8C199.28,22.13,122.71,59.77,72.43,119.85c-22.34,26.69-39.55,58-51.15,93.17-10.91,33-17,69.55-18.1,108.8C.1,432,37.18,562.33,102.37,670.42,164.6,773.62,239.73,835,298.51,830.75c58.77-12.25,134.21-94.81,196.86-215.57C561,488.71,598.56,347.91,595.89,238.52c-1-39-6.91-73.87-17.69-103.77-11.48-31.88-28.58-58.38-50.84-78.84C477.28,9.94,400.79-6.19,300,8"/></g></g></svg>